<?xml version="1.0" standalone="no"?>
<!DOCTYPE svg PUBLIC "-//W3C//DTD SVG 20010904//EN"
        "http://www.w3.org/TR/2001/REC-SVG-20010904/DTD/svg10.dtd">
<svg version="1.0" xmlns="http://www.w3.org/2000/svg"
     width="160.000000pt" height="160.000000pt" viewBox="0 0 160.000000 160.000000"
     preserveAspectRatio="xMidYMid meet">
    <metadata>
        Created by potrace 1.14, written by Peter Selinger 2001-2017
    </metadata>
    <g transform="translate(0.000000,160.000000) scale(0.100000,-0.100000)"
       fill="#000000" stroke="none">
        <path d="M494 1372 c0 -10 6 -19 13 -19 8 0 9 6 2 19 -5 10 -11 18 -12 18 -2
0 -3 -8 -3 -18z"/>
        <path d="M792 1367 c-8 -10 -6 -13 11 -14 12 0 16 1 9 4 -6 3 -10 9 -6 14 8
14 -2 11 -14 -4z"/>
        <path d="M658 1335 c-2 -2 -37 -5 -78 -8 -41 -3 -82 -8 -90 -11 -8 -3 -34 -7
-57 -10 -68 -9 -162 -35 -228 -65 -58 -26 -115 -79 -115 -105 0 -26 37 -258
46 -288 3 -9 6 -25 8 -35 2 -10 11 -46 20 -81 18 -66 17 -68 -25 -122 -61 -78
-72 -175 -31 -262 25 -51 154 -178 182 -178 6 0 13 -6 16 -14 3 -8 14 -13 25
-11 22 4 25 -5 7 -24 -11 -11 -9 -11 8 0 18 10 24 10 37 -3 9 -9 13 -19 9 -23
-4 -5 -1 -5 6 -1 10 6 10 11 2 21 -10 12 -7 12 13 2 14 -6 23 -15 21 -19 -8
-13 11 -9 25 4 11 10 13 10 7 1 -5 -9 1 -13 19 -13 16 0 24 -4 19 -11 -4 -7 1
-7 16 1 12 7 20 8 16 2 -6 -10 23 -26 32 -17 3 3 -1 5 -8 5 -7 0 -11 2 -8 5 9
9 38 -7 32 -17 -3 -5 4 -4 15 4 18 11 23 11 31 -2 9 -13 10 -13 11 0 0 10 3 8
9 -5 5 -11 9 -15 9 -10 1 11 117 12 128 1 3 -3 12 -1 19 5 8 7 14 6 20 -2 4
-8 3 -9 -4 -5 -7 4 -12 2 -12 -3 0 -14 13 -14 28 1 6 6 49 12 101 13 77 1 88
-1 84 -14 -4 -14 -3 -14 5 -1 8 10 8 18 0 27 -8 11 -7 12 7 7 14 -6 16 -4 10
7 -7 11 -5 11 10 -1 10 -8 20 -14 22 -12 3 2 7 1 10 -2 3 -3 -4 -4 -16 -1 -11
2 -21 0 -21 -6 0 -11 28 -7 56 9 12 6 25 8 29 4 5 -4 5 -1 1 6 -4 7 -12 10
-17 7 -5 -4 -9 -1 -9 4 0 14 6 14 32 0 18 -10 20 -9 15 5 -10 24 8 19 21 -6
11 -22 11 -21 7 6 -2 16 -1 26 2 22 4 -3 15 2 26 11 11 10 17 12 13 6 -4 -7
-2 -13 4 -13 6 0 8 -5 5 -11 -4 -6 -14 -8 -24 -4 -12 5 -13 4 -4 -6 10 -10 15
-9 27 1 9 7 13 16 11 21 -3 4 3 7 12 7 25 -1 47 5 55 16 3 5 14 11 23 12 27 4
30 13 4 11 -13 -1 -30 -7 -37 -14 -15 -15 -32 -17 -32 -5 0 5 16 14 35 22 19
8 35 17 35 22 0 4 7 8 16 8 8 0 12 5 8 11 -4 8 0 9 15 4 11 -3 29 -1 38 5 16
10 15 10 -4 5 -30 -8 -29 -3 8 37 68 72 83 107 85 191 1 42 -2 77 -7 77 -5 0
-9 8 -9 18 0 11 -9 27 -20 37 -11 10 -20 22 -20 28 0 5 -10 18 -21 28 -23 20
-23 18 9 139 21 79 23 91 48 257 17 114 14 127 -39 167 -61 47 -213 95 -347
111 -30 3 -68 9 -85 12 -31 5 -352 12 -357 8z"/>
        <path d="M1430 260 c0 -5 5 -10 11 -10 5 0 7 5 4 10 -3 6 -8 10 -11 10 -2 0
-4 -4 -4 -10z"/>
        <path d="M1358 183 c7 -3 16 -2 19 1 4 3 -2 6 -13 5 -11 0 -14 -3 -6 -6z"/>
        <path d="M869 38 c14 -19 32 -15 30 5 0 8 -2 8 -6 -1 -4 -10 -8 -10 -21 0 -15
12 -16 11 -3 -4z"/>
        <path d="M915 40 c-3 -5 -1 -10 4 -10 6 0 11 5 11 10 0 6 -2 10 -4 10 -3 0 -8
-4 -11 -10z"/>
        <path d="M970 40 c0 -5 5 -10 11 -10 5 0 7 5 4 10 -3 6 -8 10 -11 10 -2 0 -4
-4 -4 -10z"/>
    </g>
</svg>
